HIERARCHY
ROOT Hips
{
	OFFSET 0.00000 0.00000 0.00000
	CHANNELS 6 Xposition Yposition Zposition Zrotation Yrotation Xrotation 
	JOINT LHipJoint
	{
		OFFSET 0 0 0
		CHANNELS 3 Zrotation Yrotation Xrotation
		JOINT LeftUpLeg
		{
			OFFSET 1.75344 -1.53157 0.77399
			CHANNELS 3 Zrotation Yrotation Xrotation
			JOINT LeftLeg
			{
				OFFSET 2.25415 -6.19323 0.00000
				CHANNELS 3 Zrotation Yrotation Xrotation
				JOINT LeftFoot
				{
					OFFSET 2.30342 -6.32861 0.00000
					CHANNELS 3 Zrotation Yrotation Xrotation
					JOINT LeftToeBase
					{
						OFFSET 0.10958 -0.30108 1.49206
						CHANNELS 3 Zrotation Yrotation Xrotation
						End Site
						{
							OFFSET 0.00000 -0.00000 0.77783
						}
					}
				}
			}
		}
	}
	JOINT RHipJoint
	{
		OFFSET 0 0 0
		CHANNELS 3 Zrotation Yrotation Xrotation
		JOINT RightUpLeg
		{
			OFFSET -1.81912 -1.53156 0.77399
			CHANNELS 3 Zrotation Yrotation Xrotation
			JOINT RightLeg
			{
				OFFSET -2.22882 -6.12365 0.00000
				CHANNELS 3 Zrotation Yrotation Xrotation
				JOINT RightFoot
				{
					OFFSET -2.21943 -6.09785 0.00000
					CHANNELS 3 Zrotation Yrotation Xrotation
					JOINT RightToeBase
					{
						OFFSET -0.18931 -0.52012 1.59379
						CHANNELS 3 Zrotation Yrotation Xrotation
						End Site
						{
							OFFSET -0.00000 -0.00000 0.84686
						}
					}
				}
			}
		}
	}
	JOINT LowerBack
	{
		OFFSET 0 0 0
		CHANNELS 3 Zrotation Yrotation Xrotation
		JOINT Spine
		{
			OFFSET -0.00200 1.66634 -0.14248
			CHANNELS 3 Zrotation Yrotation Xrotation
			JOINT Spine1
			{
				OFFSET -0.00875 1.64542 0.09514
				CHANNELS 3 Zrotation Yrotation Xrotation
				JOINT Neck
				{
					OFFSET 0 0 0
					CHANNELS 3 Zrotation Yrotation Xrotation
					JOINT Neck1
					{
						OFFSET 0.02257 1.59605 0.00839
						CHANNELS 3 Zrotation Yrotation Xrotation
						JOINT Head
						{
							OFFSET -0.10214 1.57530 -0.23335
							CHANNELS 3 Zrotation Yrotation Xrotation
							End Site
							{
								OFFSET -0.03588 1.60717 -0.08062
							}
						}
					}
				}
				JOINT LeftShoulder
				{
					OFFSET 0 0 0
					CHANNELS 3 Zrotation Yrotation Xrotation
					JOINT LeftArm
					{
						OFFSET 2.54983 1.10186 0.40078
						CHANNELS 3 Zrotation Yrotation Xrotation
						JOINT LeftForeArm
						{
							OFFSET 4.28840 -0.00000 0.00000
							CHANNELS 3 Zrotation Yrotation Xrotation
							JOINT LeftHand
							{
								OFFSET 3.06552 -0.00000 -0.00000
								CHANNELS 3 Zrotation Yrotation Xrotation
								JOINT LeftFingerBase
								{
									OFFSET 0 0 0
									CHANNELS 3 Zrotation Yrotation Xrotation
									JOINT LeftHandIndex1
									{
										OFFSET 0.75304 -0.00000 0.00000
										CHANNELS 3 Zrotation Yrotation Xrotation
										End Site
										{
											OFFSET 0.60712 -0.00000 0.00000
										}
									}
								}
								JOINT LThumb
								{
									OFFSET 0 0 0
									CHANNELS 3 Zrotation Yrotation Xrotation
									End Site
									{
										OFFSET 0.61639 -0.00000 0.61639
									}
								}
							}
						}
					}
				}
				JOINT RightShoulder
				{
					OFFSET 0 0 0
					CHANNELS 3 Zrotation Yrotation Xrotation
					JOINT RightArm
					{
						OFFSET -2.60909 1.35448 0.21802
						CHANNELS 3 Zrotation Yrotation Xrotation
						JOINT RightForeArm
						{
							OFFSET -4.52172 -0.00000 -0.00000
							CHANNELS 3 Zrotation Yrotation Xrotation
							JOINT RightHand
							{
								OFFSET -2.89140 -0.00000 0.00000
								CHANNELS 3 Zrotation Yrotation Xrotation
								JOINT RightFingerBase
								{
									OFFSET 0 0 0
									CHANNELS 3 Zrotation Yrotation Xrotation
									JOINT RightHandIndex1
									{
										OFFSET -0.68054 -0.00000 0.00000
										CHANNELS 3 Zrotation Yrotation Xrotation
										End Site
										{
											OFFSET -0.54867 -0.00000 0.00000
										}
									}
								}
								JOINT RThumb
								{
									OFFSET 0 0 0
									CHANNELS 3 Zrotation Yrotation Xrotation
									End Site
									{
										OFFSET -0.55705 -0.00000 0.55705
									}
								}
							}
						}
					}
				}
			}
		}
	}
}
MOTION
Frames: 13
Frame Time: .0083333
8.4514 15.0666 41.9467 0 0 0 0 0 0 -21 0 0 0 0 0 0 0 0 0 0 0 0 0 0 21 0 0 0 0 0 0 0 0 0 0 0 0 0 0 0 0 0 0 0 0 0 0 -16 0 0 21 0 0 11 0 0 0 -8 0 0 0 0 0 0 0 0 0 0 0 0 0 0 0 0 0 0 0 0 8 0 0 0 0 0 0 0 0 0 0 0 0 0 0 0 0 0
8.4514 15.0666 41.9467 -179.2570 7.2064 179.4740 0.0000 0.0000 0.0000 -25.5267 -19.7867 -1.2466 2.9278 10.5773 30.8672 2.0775 12.7408 -34.2514 1.0120 -6.4006 -17.9514 0.0000 0.0000 0.0000 27.5735 20.9118 0.1079 -2.5500 -9.9283 28.7449 -0.4946 -19.9721 -31.6582 -0.1292 -2.3170 6.3827 -0.2162 -0.2327 8.6447 1.1655 -0.2372 -2.4921 1.3835 -0.0696 -7.4767 -9.3214 -0.8546 -7.6755 6.6917 0.3729 24.8081 4.0311 0.6240 8.9892 -0.0000 -0.0000 0.0000 -89.6759 11.1725 23.8573 21.0707 -31.9108 -6.0873 -0.0000 -0.0000 34.1773 -10.3397 -35.4598 6.0418 -7.1250 0.0000 -0.0000 -23.0904 -3.5173 26.6735 -0.0000 -0.0000 0.0000 80.7165 -14.0275 53.8656 -20.6741 31.4459 -5.8790 0.0000 0.0000 3.8036 8.2879 -54.0245 -6.7232 7.1250 -0.0000 -0.0000 79.6972 -68.7839 -56.5690
8.4523 15.0820 41.9441 -179.3440 6.9083 179.9730 0.0000 0.0000 0.0000 -25.4530 -20.1862 -1.6293 2.8923 10.5186 30.6728 2.0782 12.4386 -34.0324 0.9378 -6.1683 -17.2736 0.0000 0.0000 0.0000 27.2618 21.0529 -0.3525 -2.5420 -9.9138 28.6981 -0.7207 -19.2654 -32.2619 -0.2034 -2.9040 8.0116 0.7257 0.8232 8.0487 -0.3274 1.1638 -2.5363 -0.9162 0.5325 -7.1629 -5.8374 -2.0499 -8.0944 5.8764 -1.6095 25.4516 2.9808 -0.0164 9.4283 -0.0000 -0.0000 0.0000 -86.2123 10.6570 30.0182 20.9485 -31.7682 -6.0228 -0.0000 -0.0000 28.7390 -8.2993 -33.2515 4.5730 -7.1250 0.0000 -0.0000 -22.1512 -1.4815 24.6158 -0.0000 -0.0000 0.0000 84.4893 -14.4919 49.2754 -20.5186 31.2621 -5.7981 0.0000 0.0000 4.5268 6.6158 -53.2933 -5.3123 7.1250 -0.0000 -0.0000 77.0022 -69.1525 -54.4285
8.4542 15.0918 41.9459 -179.3260 6.6097 180.4180 0.0000 0.0000 0.0000 -25.3671 -20.8958 -1.8710 2.8758 10.4912 30.5823 2.0870 12.4948 -34.1232 0.8775 -5.9719 -16.7029 0.0000 0.0000 0.0000 27.1447 21.3502 -0.6839 -2.5175 -9.8697 28.5558 -0.7468 -19.3536 -32.5229 -0.2316 -3.0975 8.5503 0.6198 0.7750 7.6546 -0.2037 1.0988 -2.7022 -0.7129 0.5103 -7.1181 -5.4292 -2.0660 -8.5168 4.9286 -1.3916 26.1983 2.6250 0.0537 9.7559 -0.0000 -0.0000 0.0000 -86.5259 10.4894 31.2975 20.5718 -31.3251 -5.8257 -0.0000 -0.0000 24.1293 -7.7765 -31.9182 4.1298 -7.1250 0.0000 -0.0000 -21.9355 -0.2427 23.8456 -0.0000 -0.0000 0.0000 84.2554 -14.5441 49.3879 -20.4887 31.2266 -5.7826 0.0000 0.0000 4.5389 6.0322 -53.3191 -4.8440 7.1250 -0.0000 -0.0000 76.7505 -69.3565 -54.4473
8.4575 15.1052 41.9469 -179.3530 6.2901 181.0760 0.0000 0.0000 0.0000 -25.2292 -21.6889 -2.3877 2.8653 10.4737 30.5247 2.0757 12.6261 -34.1564 0.7852 -5.6571 -15.7926 0.0000 0.0000 0.0000 26.8988 21.7094 -1.3239 -2.5042 -9.8456 28.4781 -0.6411 -19.8807 -32.4728 -0.1570 -2.5531 7.0369 0.4443 0.7019 7.0304 -0.1112 0.9956 -2.9459 -0.4964 0.4740 -7.0235 -4.6921 -2.0465 -8.8870 3.6980 -1.0948 26.9331 2.1180 0.1608 10.0680 0.0000 0.0000 0.0000 -86.7109 11.3152 34.4663 20.8431 -31.6448 -5.9674 -0.0000 -0.0000 15.8641 -1.2788 -29.5117 0.6300 -7.1250 0.0000 -0.0000 -18.5043 1.7427 18.9594 0.0000 0.0000 0.0000 83.9923 -14.6071 49.7461 -20.4667 31.2005 -5.7712 0.0000 0.0000 4.5509 6.3605 -53.6155 -5.1280 7.1250 -0.0000 -0.0000 77.6736 -69.3263 -55.2951
8.4588 15.1161 41.9471 -179.4650 5.9272 181.6810 0.0000 0.0000 0.0000 -25.0040 -21.7918 -3.2530 2.8674 10.4772 30.5364 1.9907 12.5102 -33.5879 0.9966 -6.3531 -17.8125 0.0000 0.0000 0.0000 26.5605 21.9840 -1.9202 -2.4872 -9.8146 28.3785 -0.5460 -20.3534 -32.4392 -0.1224 -2.2553 6.2116 0.2225 0.6124 6.4945 -0.0619 0.8680 -3.2073 -0.2994 0.4277 -6.9975 -4.2205 -1.9799 -8.8738 2.8707 -0.8006 27.3289 1.7882 0.2775 10.1924 -0.0000 0.0000 0.0000 -86.9244 11.5874 34.4171 20.9176 -31.7321 -6.0066 -0.0000 -0.0000 15.6176 -3.6373 -29.2328 1.7781 -7.1250 0.0000 -0.0000 -19.8164 2.1355 20.3348 -0.0000 0.0000 0.0000 83.7226 -14.6455 50.1516 -20.3977 31.1186 -5.7355 0.0000 0.0000 4.7686 6.3757 -53.5109 -5.1334 7.1250 -0.0000 -0.0000 77.4180 -69.2932 -55.0069
8.4627 15.1106 41.9543 -179.5150 5.6094 181.6660 0.0000 0.0000 0.0000 -24.8893 -21.4200 -3.5649 2.8773 10.4938 30.5910 1.8967 12.3723 -32.9401 1.2969 -7.2151 -20.3542 0.0000 0.0000 0.0000 26.6665 22.3550 -1.6493 -2.4744 -9.7912 28.3033 -0.5092 -20.8338 -32.7870 -0.1543 -2.5309 6.9755 0.0808 0.5636 6.6318 -0.0273 0.7928 -3.2618 -0.1764 0.3983 -7.1377 -4.2677 -1.9778 -9.1473 2.8533 -0.7297 27.7083 1.8092 0.3192 10.3839 0.0000 0.0000 0.0000 -87.0895 11.6897 34.4143 20.9298 -31.7463 -6.0130 -0.0000 -0.0000 15.2660 -9.5536 -27.7049 4.4741 -7.1250 0.0000 -0.0000 -23.1224 3.7260 23.6202 0.0000 0.0000 0.0000 83.6248 -14.5987 50.2994 -20.3015 31.0038 -5.6858 0.0000 0.0000 5.0785 5.5763 -53.3662 -4.4798 7.1250 -0.0000 -0.0000 76.6242 -69.5239 -54.5388
8.4662 15.1113 41.9600 -179.4110 5.3975 181.6480 0.0000 0.0000 0.0000 -24.7233 -21.3926 -3.6441 2.8858 10.5079 30.6377 1.8597 12.3466 -32.7027 1.4443 -7.5974 -21.4978 0.0000 0.0000 0.0000 26.8171 22.3448 -1.6025 -2.4688 -9.7809 28.2703 -0.4918 -20.9974 -32.8785 -0.1607 -2.5824 7.1183 0.2207 0.6025 6.6602 -0.0403 0.8559 -3.2185 -0.2765 0.4217 -7.1056 -4.2582 -2.0662 -9.1969 2.8654 -0.8457 27.7922 1.8013 0.2734 10.4296 0.0000 -0.0000 0.0000 -87.0296 11.5542 34.7255 20.8921 -31.7021 -5.9931 -0.0000 -0.0000 15.0941 -6.2606 -28.5921 3.0054 -7.1250 0.0000 -0.0000 -21.2818 2.8388 21.7851 0.0000 -0.0000 0.0000 83.7318 -14.4959 50.1702 -20.2570 30.9508 -5.6629 0.0000 0.0000 5.2255 5.1447 -53.5259 -4.1409 7.1250 -0.0000 -0.0000 76.8044 -69.7141 -54.9512
8.4682 15.1139 41.9669 -179.3430 5.1726 181.7270 0.0000 0.0000 0.0000 -24.5592 -21.4383 -3.8256 2.8976 10.5274 30.7022 1.8913 12.0115 -32.6372 1.3501 -7.3557 -20.7736 0.0000 0.0000 0.0000 26.8682 22.3644 -1.6658 -2.4668 -9.7774 28.2587 -0.5774 -20.8403 -33.2098 -0.2265 -3.0631 8.4545 0.2930 0.6758 6.6587 -0.0578 0.9609 -3.2461 -0.3490 0.4697 -7.1322 -4.0971 -2.1694 -9.3260 2.7684 -0.9760 27.9407 1.7282 0.2270 10.5139 0.0000 -0.0000 0.0000 -86.9329 11.4570 35.0354 20.8357 -31.6361 -5.9635 -0.0000 -0.0000 15.1547 -2.9030 -30.2114 1.4617 -7.1250 0.0000 -0.0000 -19.3863 1.1737 20.1847 0.0000 -0.0000 0.0000 83.8335 -14.5213 49.9138 -20.2810 30.9794 -5.6753 0.0000 0.0000 5.4032 4.6379 -53.3932 -3.7260 7.1250 -0.0000 -0.0000 76.1925 -69.8502 -54.5383
8.4714 15.1144 41.9704 -179.4620 4.9410 181.7080 0.0000 0.0000 0.0000 -24.6665 -21.5191 -3.8531 2.9054 10.5403 30.7448 1.9163 11.7681 -32.6050 1.2698 -7.1423 -20.1377 0.0000 0.0000 0.0000 26.7589 22.3274 -1.6139 -2.4593 -9.7634 28.2140 -0.6495 -20.7290 -33.5105 -0.2760 -3.3793 9.3365 0.1816 0.7628 6.7016 -0.1493 1.0611 -3.2621 -0.3959 0.5217 -7.1735 -4.0331 -2.2510 -9.3066 2.8697 -1.1164 27.9886 1.7394 0.1884 10.5331 -0.0000 -0.0000 0.0000 -86.7513 11.5118 35.5821 20.9478 -31.7674 -6.0225 -0.0000 -0.0000 14.7953 -1.4320 -30.8056 0.7335 -7.1250 0.0000 -0.0000 -18.5709 0.5241 19.4546 -0.0000 -0.0000 0.0000 84.0453 -14.5852 49.5801 -20.2781 30.9760 -5.6738 0.0000 0.0000 5.6274 3.6669 -53.2028 -2.9377 7.1250 -0.0000 -0.0000 75.1760 -70.1284 -53.9224
8.4755 15.1126 41.9736 -179.4630 4.6678 181.5940 0.0000 0.0000 0.0000 -24.6837 -21.5746 -3.7687 2.9056 10.5407 30.7461 1.8642 11.9326 -32.4175 1.4145 -7.5218 -21.2709 0.0000 0.0000 0.0000 26.8180 22.1476 -1.5533 -2.4582 -9.7616 28.2080 -0.6070 -20.9870 -33.5601 -0.2270 -3.0669 8.4649 0.1904 0.8030 6.8391 -0.1870 1.1118 -3.2391 -0.4490 0.5442 -7.2274 -4.0730 -2.2910 -9.2248 3.0247 -1.1989 27.9663 1.7928 0.1690 10.5129 -0.0000 -0.0000 0.0000 -86.5992 11.6218 36.1660 21.1799 -32.0377 -6.1451 -0.0000 -0.0000 14.1914 -1.4302 -30.4866 0.7257 -7.1250 0.0000 -0.0000 -18.5737 0.8268 19.3548 -0.0000 -0.0000 0.0000 84.2033 -14.6103 49.5581 -20.3317 31.0400 -5.7014 0.0000 0.0000 5.6770 3.0624 -53.8392 -2.4733 7.1250 -0.0000 -0.0000 76.5650 -70.5091 -55.7148
8.4778 15.1129 41.9762 -179.2950 4.4787 181.5660 0.0000 0.0000 0.0000 -24.4969 -21.6225 -3.7395 2.8950 10.5231 30.6877 1.8032 12.1601 -32.2240 1.5475 -7.8519 -22.2652 0.0000 0.0000 0.0000 26.9932 21.9228 -1.6408 -2.4649 -9.7738 28.2473 -0.5490 -21.1891 -33.4545 -0.1732 -2.6812 7.3924 0.2849 0.8153 6.8452 -0.0717 1.1445 -3.2174 -0.3852 0.5586 -7.2081 -4.2961 -2.2799 -8.9124 3.0922 -1.1638 27.7705 1.8552 0.1692 10.3804 -0.0000 0.0000 0.0000 -86.7253 11.6601 36.2669 21.2004 -32.0615 -6.1560 -0.0000 -0.0000 14.3597 -1.0687 -30.8342 0.5478 -7.1250 0.0000 -0.0000 -18.3715 0.4733 19.2386 -0.0000 0.0000 0.0000 83.9917 -14.6404 50.0462 -20.5356 31.2822 -5.8069 0.0000 0.0000 5.4156 2.5356 -54.7715 -2.0717 7.1250 -0.0000 -0.0000 78.8936 -70.9109 -58.4589
8.4783 15.1141 41.9728 -179.3450 4.4739 181.4640 0.0000 0.0000 0.0000 -24.6621 -21.7342 -3.4794 2.8816 10.5008 30.6143 1.7892 12.3383 -32.2763 1.4358 -7.5761 -21.4336 0.0000 0.0000 0.0000 26.9224 21.6715 -1.6058 -2.4713 -9.7856 28.2852 -0.5999 -20.9427 -33.4658 -0.1820 -2.7481 7.5781 0.2107 0.9085 6.7718 -0.0501 1.2610 -3.1416 -0.3336 0.6196 -7.0861 -4.1327 -2.3511 -9.1583 2.8184 -1.2016 27.9713 1.7297 0.1433 10.5025 -0.0000 -0.0000 0.0000 -86.7839 11.7313 36.4106 21.2638 -32.1349 -6.1896 -0.0000 -0.0000 14.6248 -0.3664 -31.2773 0.1902 -7.1250 0.0000 -0.0000 -17.9844 0.0037 18.9413 -0.0000 -0.0000 0.0000 83.8037 -14.6528 50.4186 -20.7149 31.4941 -5.9003 0.0000 0.0000 5.1024 2.4563 -55.3533 -2.0211 7.1250 -0.0000 -0.0000 80.5072 -71.0549 -60.2183
